<svg xmlns="http://www.w3.org/2000/svg" viewBox="0 0 418.93 114.31"><defs><style>.cls-1{fill:#0b0a0a;}.cls-2{fill:#0a0909;}.cls-3{fill:#f4981f;}</style></defs><title>Weeja-logo</title><g id="Layer_2" data-name="Layer 2"><g id="Layer_1-2" data-name="Layer 1"><path class="cls-1" d="M200.06,77.82H155.19c.06,4.64,3,8.72,4.94,12.26s5.45,6.21,8.61,8a20.76,20.76,0,0,0,10.46,2.69,26.52,26.52,0,0,0,7-.86,23.37,23.37,0,0,0,6.16-2.69,47.54,47.54,0,0,0,5.48-3.92c1.68-1.4,3.84-3.29,6.51-5.69a7.31,7.31,0,0,1,4.7-1.34A7.94,7.94,0,0,1,214.4,88a6,6,0,0,1,2,4.86,12.93,12.93,0,0,1-2.27,6.47,26.31,26.31,0,0,1-6.86,7.1,39.66,39.66,0,0,1-11.52,5.64,51.77,51.77,0,0,1-16,2.25q-20.61,0-32.06-11.22T136.32,72.66a48.64,48.64,0,0,1,2.82-16.78,36.69,36.69,0,0,1,8.24-13.27,35.76,35.76,0,0,1,13.32-8.49,49.92,49.92,0,0,1,17.56-2.95q12.56,0,21.52,5a34,34,0,0,1,13.45,13,33.06,33.06,0,0,1,4.47,16.3q0,7.69-4.63,10T200.06,77.82ZM157.45,66.23h40.11a3.06,3.06,0,0,0,3-3.56q-1.28-7.83-5.5-12.1c-3.42-3.47-11.93-5.2-17.52-5.2-5.33,0-12.71,1.76-16.13,5.27a25.85,25.85,0,0,0-6.67,12.24A2.75,2.75,0,0,0,157.45,66.23Z"/><path class="cls-1" d="M290.89,77.82H246c.05,4.64,3,8.72,4.94,12.26s5.44,6.21,8.6,8A20.77,20.77,0,0,0,270,100.77a26.58,26.58,0,0,0,7-.86,23.45,23.45,0,0,0,6.15-2.69,47.67,47.67,0,0,0,5.49-3.92q2.51-2.1,6.5-5.69a7.32,7.32,0,0,1,4.71-1.34A8,8,0,0,1,305.24,88a6,6,0,0,1,2,4.86A12.86,12.86,0,0,1,305,99.32a26.16,26.16,0,0,1-6.86,7.1,39.54,39.54,0,0,1-11.52,5.64,51.71,51.71,0,0,1-15.95,2.25q-20.62,0-32.07-11.22T227.16,72.66A48.64,48.64,0,0,1,230,55.88a36.53,36.53,0,0,1,8.23-13.27,35.88,35.88,0,0,1,13.33-8.49,49.88,49.88,0,0,1,17.56-2.95q12.54,0,21.52,5a34.08,34.08,0,0,1,13.44,13,33.06,33.06,0,0,1,4.47,16.3q0,7.69-4.62,10T290.89,77.82ZM248.28,66.23h40.11a3.07,3.07,0,0,0,3-3.56q-1.29-7.83-5.5-12.1c-3.43-3.47-11.94-5.2-17.53-5.2-5.33,0-12.71,1.76-16.13,5.27a25.94,25.94,0,0,0-6.67,12.24A2.75,2.75,0,0,0,248.28,66.23Z"/><path class="cls-2" d="M44.94,19.57c-5,3.16-9.86,6.49-14.67,9.89S20.72,36.35,16,39.87l-.44.33-.22.16a7,7,0,0,0,.8-.71,7.35,7.35,0,0,0,2-6.16,8.19,8.19,0,0,0-.25-1.09c-.06-.18-.12-.35-.19-.52v0l0,.06.42,1c.59,1.35,1.2,2.69,1.81,4,1.25,2.67,2.56,5.31,3.85,8s2.51,5.33,3.65,8,2.18,5.47,3.26,8.21c4.34,10.94,8.52,21.95,12.67,33l1.56,4.14.78,2.06.1.26s0,.09,0,0l-.1-.25c-.08-.16-.16-.32-.25-.47a7.16,7.16,0,0,0-11.3-1.58c-.19.2,0,.06,0,.06l.1-.1.2-.19L36,96.57l3.19-3.06L52,81.28l6.38-6.12,3.18-3,.8-.77.4-.38.2-.19A9.22,9.22,0,0,1,69.21,68a9.21,9.21,0,0,1,5.35,1.5,8.94,8.94,0,0,1,2.09,1.88l.21.27.12.15.08.12.15.23.63.9,1.26,1.82,2.52,3.63,5,7.26,5,7.25,2.54,3.61,1.27,1.8.32.45.16.23s.08.11.05.08a2.47,2.47,0,0,0-.21-.27,4.71,4.71,0,0,0-2.41-1.44,4.64,4.64,0,0,0-4.89,2l1.08-1.68L92,94l4.7-7.48q9.36-15,18.37-30.17l2.25-3.79.56-1,.28-.48,0-.06h0a2.91,2.91,0,0,0-.17.3,4.06,4.06,0,0,0-.27.65,4.54,4.54,0,0,0,.58,4.06,4,4,0,0,0,.44.56l.13.12,0,.05-.11-.09a16.3,16.3,0,0,0-3.73-2.46,25.15,25.15,0,0,0-4.58-1.56,76.12,76.12,0,0,1-9.66-2.58,25.63,25.63,0,0,1-4.13-2,13.06,13.06,0,0,1-3.37-2.86,15.58,15.58,0,0,1,21-22.51,13.11,13.11,0,0,1,3.1,3.16,25.6,25.6,0,0,1,2.33,4A74,74,0,0,1,123,39.31a25.23,25.23,0,0,0,1.89,4.45,16,16,0,0,0,2.73,3.55l.46.47a8.34,8.34,0,0,1,.8,1A8.51,8.51,0,0,1,130,51a8.28,8.28,0,0,1-.05,4.95,8.46,8.46,0,0,1-.48,1.17c-.09.18-.2.36-.3.54l-.11.17-.29.47-.6.93L125.79,63q-9.48,14.91-18.6,30l-4.54,7.57-2.25,3.8-.56,1-.28.47-.14.24-.07.12-.19.29a8.22,8.22,0,0,1-3.84,3.13,8.22,8.22,0,0,1-9.16-2.22l-.4-.48-.11-.14-.17-.22-.33-.43-1.36-1.75-2.7-3.49L75.64,93.9,70.17,87,67.43,83.5l-1.36-1.74-.69-.86-.17-.22-.09-.11,0,.05.12.17a5.79,5.79,0,0,0,1.27,1.14,5.64,5.64,0,0,0,6.49-.2,7.26,7.26,0,0,0,.61-.53l-.18.2-.37.41-.74.82-3,3.28-5.92,6.55L51.63,105.57l-3,3.28-1.48,1.64-.18.2-.09.11-.25.24A10.45,10.45,0,0,1,44,113a10.79,10.79,0,0,1-12.28-1.7,10.94,10.94,0,0,1-2.05-2.61c-.13-.24-.25-.48-.37-.72l-.21-.48-.11-.25-.9-2-1.79-4c-4.8-10.76-9.55-21.53-14.15-32.37-1.15-2.7-2.34-5.4-3.45-8.13s-2.1-5.5-3.05-8.29S3.8,46.77,2.81,44c-.5-1.38-1-2.76-1.54-4.14l-.41-1-.09-.22c-.1-.26-.2-.52-.28-.78A11.31,11.31,0,0,1,.12,36.2a10.63,10.63,0,0,1,0-3.33A10.89,10.89,0,0,1,3.08,27a11.47,11.47,0,0,1,1.21-1.07l.22-.17.43-.34c4.64-3.63,9.26-7.28,13.79-11s9-7.56,13.39-11.56A10.6,10.6,0,0,1,46.47,18.41,10.45,10.45,0,0,1,44.94,19.57Z"/><path class="cls-3" d="M370.71,29.7c-.47,10.54-1.11,21.08-1.84,31.61-.34,5.27-.77,10.54-1.16,15.81l-.29,3.95-.35,4.06a33.85,33.85,0,0,1-2.29,10,31.65,31.65,0,0,1-5.19,8.78,28.53,28.53,0,0,1-7.9,6.51,25.3,25.3,0,0,1-9.77,3.06,23.21,23.21,0,0,1-9.93-1.19,22.81,22.81,0,0,1-8.17-5,23.77,23.77,0,0,1-5.27-7.39A25,25,0,0,1,317,83.32a27.7,27.7,0,0,0,6.24,13.6,20.25,20.25,0,0,0,5.25,4.3,16.2,16.2,0,0,0,5.91,1.92A13.68,13.68,0,0,0,345,100a16.66,16.66,0,0,0,5.43-9.55,18.15,18.15,0,0,0,.26-5.55L350,77.12c-.39-5.27-.82-10.54-1.16-15.81-.73-10.53-1.37-21.07-1.84-31.61Z"/><rect class="cls-3" x="350.68" y="3.22" width="16.51" height="16.51" rx="2.56" transform="translate(97.01 257.17) rotate(-45)"/><path class="cls-3" d="M418.22,91.85,397.46,47.26c-1.39-3-4.38-4.37-6.67-3.08L367.27,57.32c-2.3,1.28-3,4.74-1.64,7.73l20.76,44.59c1.39,3,4.38,4.37,6.67,3.09l23.52-13.15C418.88,98.3,419.61,94.84,418.22,91.85Zm-5,4.11a2.25,2.25,0,0,1-1.15,1.78A1.83,1.83,0,0,1,411,98a2.59,2.59,0,0,1-1.06-.37,9.24,9.24,0,0,1-1.33-1.1c-.54-.53-1-1-1.42-1.4l-1.24.37-9.48,5-.95.91a18.22,18.22,0,0,1,.57,3.76,1.8,1.8,0,0,1-1.07,1.63,2.26,2.26,0,0,1-2,0,3.52,3.52,0,0,1-1.74-1.62,6.78,6.78,0,0,1-.55-1.41c-.14-.52-.3-1.24-.49-2.19L385.38,78l-.51-2.43a15,15,0,0,1-.32-2.45,4.33,4.33,0,0,1,.37-1.88,3.29,3.29,0,0,1,3.28-1.74,4.23,4.23,0,0,1,1.75.72,12.28,12.28,0,0,1,1.59,1.34c.51.51,1.17,1.19,2,2.05l16.85,17a14.93,14.93,0,0,1,2.5,3A3.71,3.71,0,0,1,413.27,96Z"/></g></g></svg>