<svg width="18" height="19" viewBox="0 0 18 19" fill="none" xmlns="http://www.w3.org/2000/svg">
<path d="M15.335 15.4457H12.67V11.2687C12.67 10.2727 12.65 8.99069 11.28 8.99069C9.891 8.99069 9.679 10.0747 9.679 11.1957V15.4457H7.013V6.85669H9.573V8.02669H9.608C9.966 7.35269 10.836 6.63969 12.136 6.63969C14.836 6.63969 15.336 8.41769 15.336 10.7307V15.4457H15.335ZM4.003 5.68169C3.79956 5.68195 3.59806 5.64206 3.41006 5.5643C3.22207 5.48653 3.05127 5.37243 2.90746 5.22853C2.76365 5.08462 2.64965 4.91375 2.57201 4.7257C2.49437 4.53766 2.4546 4.33613 2.455 4.13269C2.4552 3.82652 2.54618 3.52729 2.71644 3.27284C2.8867 3.01838 3.12859 2.82012 3.41153 2.70314C3.69447 2.58616 4.00574 2.55571 4.30598 2.61563C4.60622 2.67555 4.88196 2.82316 5.09831 3.0398C5.31466 3.25643 5.46191 3.53235 5.52145 3.83267C5.58099 4.13299 5.55013 4.44422 5.43278 4.72701C5.31543 5.00979 5.11687 5.25143 4.86219 5.42136C4.60751 5.59129 4.30817 5.68189 4.002 5.68169H4.003ZM5.339 15.4457H2.666V6.85669H5.34V15.4457H5.339ZM16.67 0.106689H1.329C0.593 0.106689 0 0.686689 0 1.40369V16.8097C0 17.5267 0.594 18.1067 1.328 18.1067H16.666C17.4 18.1067 18 17.5267 18 16.8097V1.40369C18 0.686689 17.4 0.106689 16.666 0.106689H16.669H16.67Z" fill="#7F7EA6"/>
</svg>
