<svg width="22" height="18" viewBox="0 0 22 18" fill="none" xmlns="http://www.w3.org/2000/svg">
<path d="M21.1621 2.76268C20.3986 3.10037 19.589 3.32215 18.7601 3.42068C19.6338 2.89811 20.2878 2.07569 20.6001 1.10668C19.7801 1.59468 18.8811 1.93668 17.9441 2.12168C17.3147 1.44826 16.4804 1.00164 15.571 0.851262C14.6616 0.700883 13.728 0.855168 12.9153 1.29013C12.1026 1.72509 11.4564 2.41636 11.0772 3.25647C10.6979 4.09658 10.6068 5.03846 10.8181 5.93568C9.15516 5.85233 7.52838 5.4202 6.04334 4.66734C4.55829 3.91448 3.24818 2.85772 2.19805 1.56568C1.82634 2.20413 1.63101 2.9299 1.63205 3.66868C1.63205 5.11868 2.37005 6.39968 3.49205 7.14968C2.82806 7.12877 2.17869 6.94946 1.59805 6.62668V6.67868C1.59825 7.64438 1.93242 8.58029 2.5439 9.32774C3.15538 10.0752 4.00653 10.5882 4.95305 10.7797C4.33667 10.9467 3.69036 10.9713 3.06305 10.8517C3.32992 11.6829 3.85006 12.4099 4.55064 12.9308C5.25123 13.4517 6.09718 13.7405 6.97005 13.7567C6.10253 14.438 5.10923 14.9417 4.04693 15.2388C2.98464 15.536 1.87418 15.6209 0.779053 15.4887C2.69075 16.7181 4.91615 17.3708 7.18905 17.3687C14.8821 17.3687 19.0891 10.9957 19.0891 5.46868C19.0891 5.28868 19.0841 5.10668 19.0761 4.92868C19.8949 4.33684 20.6017 3.6037 21.1631 2.76368L21.1621 2.76268Z" fill="#7F7EA6"/>
</svg>
